<?xml version="1.0" encoding="UTF-8" standalone="no"?>
<!DOCTYPE svg PUBLIC "-//W3C//DTD SVG 1.1//EN"
 "http://www.w3.org/Graphics/SVG/1.1/DTD/svg11.dtd">
<!-- Generated by graphviz version 2.40.1 (20161225.0304)
 -->
<!-- Title: state transitions Pages: 1 -->
<svg width="373pt" height="188pt"
 viewBox="0.00 0.00 373.00 188.00" xmlns="http://www.w3.org/2000/svg" xmlns:xlink="http://www.w3.org/1999/xlink">
<g id="graph0" class="graph" transform="scale(1 1) rotate(0) translate(4 184)">
<title>state transitions</title>
<polygon fill="#ffffff" stroke="transparent" points="-4,4 -4,-184 369,-184 369,4 -4,4"/>
<g id="clust1" class="cluster state regular">
<title>cluster_state</title>
<path fill="none" stroke="#000000" stroke-width="2" d="M20,-8C20,-8 345,-8 345,-8 351,-8 357,-14 357,-20 357,-20 357,-160 357,-160 357,-166 351,-172 345,-172 345,-172 20,-172 20,-172 14,-172 8,-166 8,-160 8,-160 8,-20 8,-20 8,-14 14,-8 20,-8"/>
<text text-anchor="start" x="169.4944" y="-153.2" font-family="Helvetica,sans-Serif" font-size="12.00" fill="#000000">state</text>
</g>
<!-- state -->
<!-- EMPTY -->
<g id="node2" class="node state regular">
<title>EMPTY</title>
<polygon fill="#ffffff" fill-opacity="0.003922" stroke="transparent" stroke-width="2" points="136.5,-134 73.5,-134 73.5,-98 136.5,-98 136.5,-134"/>
<text text-anchor="start" x="84.833" y="-112.2" font-family="Helvetica,sans-Serif" font-size="12.00" fill="#000000">EMPTY</text>
<path fill="none" stroke="#000000" stroke-width="2" d="M85.8333,-99C85.8333,-99 124.1667,-99 124.1667,-99 129.8333,-99 135.5,-104.6667 135.5,-110.3333 135.5,-110.3333 135.5,-121.6667 135.5,-121.6667 135.5,-127.3333 129.8333,-133 124.1667,-133 124.1667,-133 85.8333,-133 85.8333,-133 80.1667,-133 74.5,-127.3333 74.5,-121.6667 74.5,-121.6667 74.5,-110.3333 74.5,-110.3333 74.5,-104.6667 80.1667,-99 85.8333,-99"/>
</g>
<!-- FULL -->
<g id="node3" class="node state regular">
<title>FULL</title>
<polygon fill="#ffffff" fill-opacity="0.003922" stroke="transparent" stroke-width="2" points="131,-52 75,-52 75,-16 131,-16 131,-52"/>
<text text-anchor="start" x="88.3324" y="-30.2" font-family="Helvetica,sans-Serif" font-size="12.00" fill="#000000">FULL</text>
<path fill="none" stroke="#000000" stroke-width="2" d="M87.3333,-17C87.3333,-17 118.6667,-17 118.6667,-17 124.3333,-17 130,-22.6667 130,-28.3333 130,-28.3333 130,-39.6667 130,-39.6667 130,-45.3333 124.3333,-51 118.6667,-51 118.6667,-51 87.3333,-51 87.3333,-51 81.6667,-51 76,-45.3333 76,-39.6667 76,-39.6667 76,-28.3333 76,-28.3333 76,-22.6667 81.6667,-17 87.3333,-17"/>
</g>
<!-- EMPTY&#45;&gt;FULL -->
<g id="edge1" class="edge transition">
<title>EMPTY&#45;&gt;FULL</title>
<path fill="none" stroke="#000000" d="M73.2434,-100.512C65.9804,-95.3656 59.1975,-88.8863 55.096,-81 49.5391,-70.3152 56.2798,-60.5963 66.2931,-52.8052"/>
<polygon fill="#000000" stroke="#000000" points="68.5488,-55.504 74.8527,-46.9886 64.6145,-49.7143 68.5488,-55.504"/>
<text text-anchor="start" x="55" y="-72" font-family="Helvetica,sans-Serif" font-size="10.00" fill="#000000">upstream_tvalid &#160;&#160;</text>
</g>
<!-- FULL&#45;&gt;EMPTY -->
<g id="edge2" class="edge transition">
<title>FULL&#45;&gt;EMPTY</title>
<path fill="none" stroke="#000000" d="M124.1979,-52.1758C128.5972,-57.1394 132.6162,-62.8599 135,-69 137.6977,-75.9485 136.0585,-82.9691 132.4472,-89.3898"/>
<polygon fill="#000000" stroke="#000000" points="129.4718,-87.5343 126.5225,-97.7104 135.174,-91.5946 129.4718,-87.5343"/>
<text text-anchor="start" x="136" y="-72" font-family="Helvetica,sans-Serif" font-size="10.00" fill="#000000">downstream_tready &amp;&amp; !upstream_tvalid &#160;&#160;</text>
</g>
</g>
</svg>
