<?xml version="1.0" encoding="UTF-8" standalone="no"?>
<!DOCTYPE svg PUBLIC "-//W3C//DTD SVG 1.1//EN"
 "http://www.w3.org/Graphics/SVG/1.1/DTD/svg11.dtd">
<!-- Generated by graphviz version 2.40.1 (20161225.0304)
 -->
<!-- Title: state transitions Pages: 1 -->
<svg width="570pt" height="434pt"
 viewBox="0.00 0.00 570.25 434.00" xmlns="http://www.w3.org/2000/svg" xmlns:xlink="http://www.w3.org/1999/xlink">
<g id="graph0" class="graph" transform="scale(1 1) rotate(0) translate(4 430)">
<title>state transitions</title>
<polygon fill="#ffffff" stroke="transparent" points="-4,4 -4,-430 566.255,-430 566.255,4 -4,4"/>
<g id="clust1" class="cluster state regular">
<title>cluster_state</title>
<path fill="none" stroke="#000000" stroke-width="2" d="M20,-8C20,-8 533,-8 533,-8 539,-8 545,-14 545,-20 545,-20 545,-406 545,-406 545,-412 539,-418 533,-418 533,-418 20,-418 20,-418 14,-418 8,-412 8,-406 8,-406 8,-20 8,-20 8,-14 14,-8 20,-8"/>
<text text-anchor="start" x="263.4944" y="-399.2" font-family="Helvetica,sans-Serif" font-size="12.00" fill="#000000">state</text>
</g>
<!-- state -->
<!-- IDLE -->
<g id="node2" class="node state regular">
<title>IDLE</title>
<polygon fill="#ffffff" fill-opacity="0.003922" stroke="transparent" stroke-width="2" points="366,-380 310,-380 310,-344 366,-344 366,-380"/>
<text text-anchor="start" x="324.6644" y="-358.2" font-family="Helvetica,sans-Serif" font-size="12.00" fill="#000000">IDLE</text>
<path fill="none" stroke="#000000" stroke-width="2" d="M322.3333,-345C322.3333,-345 353.6667,-345 353.6667,-345 359.3333,-345 365,-350.6667 365,-356.3333 365,-356.3333 365,-367.6667 365,-367.6667 365,-373.3333 359.3333,-379 353.6667,-379 353.6667,-379 322.3333,-379 322.3333,-379 316.6667,-379 311,-373.3333 311,-367.6667 311,-367.6667 311,-356.3333 311,-356.3333 311,-350.6667 316.6667,-345 322.3333,-345"/>
</g>
<!-- WAIT_INPUT_DATA -->
<g id="node3" class="node state regular">
<title>WAIT_INPUT_DATA</title>
<polygon fill="#ffffff" fill-opacity="0.003922" stroke="transparent" stroke-width="2" points="404.5,-298 271.5,-298 271.5,-262 404.5,-262 404.5,-298"/>
<text text-anchor="start" x="282.835" y="-276.2" font-family="Helvetica,sans-Serif" font-size="12.00" fill="#000000">WAIT_INPUT_DATA</text>
<path fill="none" stroke="#000000" stroke-width="2" d="M283.8333,-263C283.8333,-263 392.1667,-263 392.1667,-263 397.8333,-263 403.5,-268.6667 403.5,-274.3333 403.5,-274.3333 403.5,-285.6667 403.5,-285.6667 403.5,-291.3333 397.8333,-297 392.1667,-297 392.1667,-297 283.8333,-297 283.8333,-297 278.1667,-297 272.5,-291.3333 272.5,-285.6667 272.5,-285.6667 272.5,-274.3333 272.5,-274.3333 272.5,-268.6667 278.1667,-263 283.8333,-263"/>
</g>
<!-- IDLE&#45;&gt;WAIT_INPUT_DATA -->
<g id="edge1" class="edge transition">
<title>IDLE&#45;&gt;WAIT_INPUT_DATA</title>
<path fill="none" stroke="#000000" d="M338,-343.8015C338,-333.3976 338,-320.1215 338,-308.3768"/>
<polygon fill="#000000" stroke="#000000" points="341.5001,-308.1476 338,-298.1476 334.5001,-308.1476 341.5001,-308.1476"/>
<text text-anchor="middle" x="339.3895" y="-318" font-family="Helvetica,sans-Serif" font-size="10.00" fill="#000000"> </text>
</g>
<!-- WAIT_DATA1_INPUT -->
<g id="node4" class="node state regular">
<title>WAIT_DATA1_INPUT</title>
<polygon fill="#ffffff" fill-opacity="0.003922" stroke="transparent" stroke-width="2" points="513,-216 373,-216 373,-180 513,-180 513,-216"/>
<text text-anchor="start" x="383.9996" y="-194.2" font-family="Helvetica,sans-Serif" font-size="12.00" fill="#000000">WAIT_DATA1_INPUT</text>
<path fill="none" stroke="#000000" stroke-width="2" d="M385.3333,-181C385.3333,-181 500.6667,-181 500.6667,-181 506.3333,-181 512,-186.6667 512,-192.3333 512,-192.3333 512,-203.6667 512,-203.6667 512,-209.3333 506.3333,-215 500.6667,-215 500.6667,-215 385.3333,-215 385.3333,-215 379.6667,-215 374,-209.3333 374,-203.6667 374,-203.6667 374,-192.3333 374,-192.3333 374,-186.6667 379.6667,-181 385.3333,-181"/>
</g>
<!-- WAIT_INPUT_DATA&#45;&gt;WAIT_DATA1_INPUT -->
<g id="edge4" class="edge transition">
<title>WAIT_INPUT_DATA&#45;&gt;WAIT_DATA1_INPUT</title>
<path fill="none" stroke="#000000" d="M364.8122,-261.94C372.4156,-256.6289 380.6276,-250.7091 388,-245 396.9554,-238.065 406.4265,-230.1837 414.9386,-222.8833"/>
<polygon fill="#000000" stroke="#000000" points="417.4896,-225.3041 422.7577,-216.1118 412.9071,-220.0126 417.4896,-225.3041"/>
<text text-anchor="start" x="402" y="-236" font-family="Helvetica,sans-Serif" font-size="10.00" fill="#000000">data2_i_tvalid &#160;&#160;</text>
</g>
<!-- WAIT_DATA2_INPUT -->
<g id="node5" class="node state regular">
<title>WAIT_DATA2_INPUT</title>
<polygon fill="#ffffff" fill-opacity="0.003922" stroke="transparent" stroke-width="2" points="351,-216 211,-216 211,-180 351,-180 351,-216"/>
<text text-anchor="start" x="221.9996" y="-194.2" font-family="Helvetica,sans-Serif" font-size="12.00" fill="#000000">WAIT_DATA2_INPUT</text>
<path fill="none" stroke="#000000" stroke-width="2" d="M223.3333,-181C223.3333,-181 338.6667,-181 338.6667,-181 344.3333,-181 350,-186.6667 350,-192.3333 350,-192.3333 350,-203.6667 350,-203.6667 350,-209.3333 344.3333,-215 338.6667,-215 338.6667,-215 223.3333,-215 223.3333,-215 217.6667,-215 212,-209.3333 212,-203.6667 212,-203.6667 212,-192.3333 212,-192.3333 212,-186.6667 217.6667,-181 223.3333,-181"/>
</g>
<!-- WAIT_INPUT_DATA&#45;&gt;WAIT_DATA2_INPUT -->
<g id="edge3" class="edge transition">
<title>WAIT_INPUT_DATA&#45;&gt;WAIT_DATA2_INPUT</title>
<path fill="none" stroke="#000000" d="M325.3499,-261.8015C317.7489,-250.8668 307.9425,-236.7593 299.4844,-224.5916"/>
<polygon fill="#000000" stroke="#000000" points="302.1964,-222.361 293.6148,-216.1476 296.4486,-226.3564 302.1964,-222.361"/>
<text text-anchor="start" x="313" y="-236" font-family="Helvetica,sans-Serif" font-size="10.00" fill="#000000">data1_i_tvalid &#160;&#160;</text>
</g>
<!-- LOAD_OUTPUT_DATA -->
<g id="node6" class="node state regular">
<title>LOAD_OUTPUT_DATA</title>
<polygon fill="#ffffff" fill-opacity="0.003922" stroke="transparent" stroke-width="2" points="368.5,-134 219.5,-134 219.5,-98 368.5,-98 368.5,-134"/>
<text text-anchor="start" x="230.8316" y="-112.2" font-family="Helvetica,sans-Serif" font-size="12.00" fill="#000000">LOAD_OUTPUT_DATA</text>
<path fill="none" stroke="#000000" stroke-width="2" d="M231.8333,-99C231.8333,-99 356.1667,-99 356.1667,-99 361.8333,-99 367.5,-104.6667 367.5,-110.3333 367.5,-110.3333 367.5,-121.6667 367.5,-121.6667 367.5,-127.3333 361.8333,-133 356.1667,-133 356.1667,-133 231.8333,-133 231.8333,-133 226.1667,-133 220.5,-127.3333 220.5,-121.6667 220.5,-121.6667 220.5,-110.3333 220.5,-110.3333 220.5,-104.6667 226.1667,-99 231.8333,-99"/>
</g>
<!-- WAIT_INPUT_DATA&#45;&gt;LOAD_OUTPUT_DATA -->
<g id="edge2" class="edge transition">
<title>WAIT_INPUT_DATA&#45;&gt;LOAD_OUTPUT_DATA</title>
<path fill="none" stroke="#000000" d="M271.4203,-277.4157C183.0378,-273.0767 38,-262.3925 38,-239 38,-239 38,-239 38,-157 38,-139.3208 134.4206,-127.8992 208.9127,-121.7131"/>
<polygon fill="#000000" stroke="#000000" points="209.5811,-125.1705 219.266,-120.8749 209.0162,-118.1934 209.5811,-125.1705"/>
<text text-anchor="start" x="38" y="-195" font-family="Helvetica,sans-Serif" font-size="10.00" fill="#000000">data1_i_tvalid &amp;&amp; data2_i_tvalid &#160;&#160;</text>
</g>
<!-- WAIT_DATA1_INPUT&#45;&gt;LOAD_OUTPUT_DATA -->
<g id="edge5" class="edge transition">
<title>WAIT_DATA1_INPUT&#45;&gt;LOAD_OUTPUT_DATA</title>
<path fill="none" stroke="#000000" d="M401.6376,-179.8712C390.5601,-174.7011 378.6899,-168.8705 367.976,-163 354.9832,-155.8809 341.1725,-147.3781 329.0456,-139.5742"/>
<polygon fill="#000000" stroke="#000000" points="330.8393,-136.5656 320.5487,-134.0449 327.0213,-142.4327 330.8393,-136.5656"/>
<text text-anchor="start" x="367" y="-154" font-family="Helvetica,sans-Serif" font-size="10.00" fill="#000000">data1_i_tvalid &#160;&#160;</text>
</g>
<!-- WAIT_DATA2_INPUT&#45;&gt;LOAD_OUTPUT_DATA -->
<g id="edge6" class="edge transition">
<title>WAIT_DATA2_INPUT&#45;&gt;LOAD_OUTPUT_DATA</title>
<path fill="none" stroke="#000000" d="M261.1861,-179.6784C254.4145,-171.1594 249.5407,-160.7705 253.976,-151 255.5165,-147.6064 257.5667,-144.4126 259.9274,-141.4401"/>
<polygon fill="#000000" stroke="#000000" points="262.5077,-143.805 266.7649,-134.1031 257.3867,-139.0326 262.5077,-143.805"/>
<text text-anchor="start" x="253" y="-154" font-family="Helvetica,sans-Serif" font-size="10.00" fill="#000000">data2_i_tvalid &#160;&#160;</text>
</g>
<!-- WAIT_OUTPUT_READY -->
<g id="node7" class="node state regular">
<title>WAIT_OUTPUT_READY</title>
<polygon fill="#ffffff" fill-opacity="0.003922" stroke="transparent" stroke-width="2" points="454.5,-52 299.5,-52 299.5,-16 454.5,-16 454.5,-52"/>
<text text-anchor="start" x="310.5022" y="-30.2" font-family="Helvetica,sans-Serif" font-size="12.00" fill="#000000">WAIT_OUTPUT_READY</text>
<path fill="none" stroke="#000000" stroke-width="2" d="M311.8333,-17C311.8333,-17 442.1667,-17 442.1667,-17 447.8333,-17 453.5,-22.6667 453.5,-28.3333 453.5,-28.3333 453.5,-39.6667 453.5,-39.6667 453.5,-45.3333 447.8333,-51 442.1667,-51 442.1667,-51 311.8333,-51 311.8333,-51 306.1667,-51 300.5,-45.3333 300.5,-39.6667 300.5,-39.6667 300.5,-28.3333 300.5,-28.3333 300.5,-22.6667 306.1667,-17 311.8333,-17"/>
</g>
<!-- LOAD_OUTPUT_DATA&#45;&gt;WAIT_OUTPUT_READY -->
<g id="edge7" class="edge transition">
<title>LOAD_OUTPUT_DATA&#45;&gt;WAIT_OUTPUT_READY</title>
<path fill="none" stroke="#000000" d="M312.4204,-97.8015C323.9183,-86.4422 338.8819,-71.6588 351.5098,-59.1831"/>
<polygon fill="#000000" stroke="#000000" points="353.9771,-61.6655 358.6311,-52.1476 349.0574,-56.6859 353.9771,-61.6655"/>
<text text-anchor="middle" x="342.3895" y="-72" font-family="Helvetica,sans-Serif" font-size="10.00" fill="#000000"> </text>
</g>
<!-- WAIT_OUTPUT_READY&#45;&gt;WAIT_INPUT_DATA -->
<g id="edge8" class="edge transition">
<title>WAIT_OUTPUT_READY&#45;&gt;WAIT_INPUT_DATA</title>
<path fill="none" stroke="#000000" d="M436.1855,-52.1373C452.104,-58.7972 465,-66.7413 465,-75 465,-142.5 465,-142.5 465,-142.5 465,-173.5706 509.0411,-152.7674 524,-180 531.7032,-194.0236 531.7966,-202.0281 524,-216 512.659,-236.3238 460.6652,-253.1487 414.524,-264.439"/>
<polygon fill="#000000" stroke="#000000" points="413.698,-261.0377 404.7836,-266.7634 415.3229,-267.8465 413.698,-261.0377"/>
<text text-anchor="start" x="490" y="-154" font-family="Helvetica,sans-Serif" font-size="10.00" fill="#000000">data_o_tready &#160;&#160;</text>
</g>
</g>
</svg>
